<svg width="20" height="20" viewBox="0 0 20 20" fill="none" xmlns="http://www.w3.org/2000/svg">
<g clip-path="url(#clip0_1987_25307)">
<path d="M12.8871 0.115509C12.7954 0.018921 12.6697 -0.0390625 12.5394 -0.0390625H4.7374C3.29773 -0.0390625 2.10938 1.14456 2.10938 2.58408V17.3377C2.10938 18.7773 3.29773 19.961 4.7374 19.961H15.3267C16.7664 19.961 17.9547 18.7773 17.9547 17.3377V5.62272C17.9547 5.49714 17.8968 5.37644 17.8147 5.28459L12.8871 0.115509ZM13.0272 1.66626L16.3268 5.13001H14.1818C13.5442 5.13001 13.0272 4.61793 13.0272 3.98026V1.66626ZM15.3267 18.9948H4.7374C3.83408 18.9948 3.07556 18.246 3.07556 17.3377V2.58408C3.07556 1.68076 3.8292 0.927126 4.7374 0.927126H12.061V3.98026C12.061 5.15412 13.008 6.0962 14.1818 6.0962H16.9886V17.3377C16.9886 18.246 16.2349 18.9948 15.3267 18.9948Z" fill="#696969"/>
<path d="M14.007 15.6611H6.05536C5.7897 15.6611 5.57227 15.8784 5.57227 16.1442C5.57227 16.4099 5.7897 16.6273 6.05536 16.6273H14.0119C14.2776 16.6273 14.495 16.4099 14.495 16.1442C14.495 15.8784 14.2776 15.6611 14.007 15.6611Z" fill="#696969"/>
<path d="M9.67834 13.9273C9.77019 14.0239 9.89577 14.0819 10.031 14.0819C10.1663 14.0819 10.2919 14.0239 10.3836 13.9273L13.2146 10.8886C13.3981 10.6953 13.3836 10.3862 13.1905 10.2075C12.9971 10.0239 12.688 10.0383 12.5093 10.2316L10.5141 12.3717V7.09638C10.5141 6.83057 10.2966 6.61328 10.031 6.61328C9.76531 6.61328 9.54787 6.83057 9.54787 7.09638V12.3717L7.55751 10.2316C7.37395 10.0384 7.06954 10.0239 6.87636 10.2075C6.68318 10.3911 6.66869 10.6955 6.85225 10.8886L9.67834 13.9273Z" fill="#696969"/>
</g>
<defs>
<clipPath id="clip0_1987_25307">
<rect width="20" height="20" fill="white"/>
</clipPath>
</defs>
</svg>
