<svg width="19" height="19" viewBox="0 0 19 19" fill="none" xmlns="http://www.w3.org/2000/svg">
<path d="M17.2372 8.62454V4.3934C17.2372 3.46058 16.4782 2.70166 15.5454 2.70166H3.45459C2.52177 2.70166 1.76284 3.46058 1.76284 4.3934V8.62454C0.74768 8.90557 0 9.83701 0 10.9403V14.1552C0 14.4667 0.252566 14.7193 0.564062 14.7193H1.76284V15.734C1.76284 16.0455 2.01541 16.2981 2.32691 16.2981C2.6384 16.2981 2.89097 16.0455 2.89097 15.734V14.7193H16.109V15.734C16.109 16.0455 16.3616 16.2981 16.6731 16.2981C16.9846 16.2981 17.2372 16.0455 17.2372 15.734V14.7193H18.4359C18.7474 14.7193 19 14.4667 19 14.1552V10.9403C19 9.83701 18.2523 8.90557 17.2372 8.62454ZM2.89097 4.3934C2.89097 4.08265 3.14383 3.82979 3.45459 3.82979H15.5455C15.8562 3.82979 16.1091 4.08265 16.1091 4.3934V8.53726H14.7874V7.40501C14.7874 6.42046 13.9864 5.6195 13.0019 5.6195H10.7215C10.2493 5.6195 9.81966 5.80404 9.50004 6.10444C9.18041 5.80408 8.75076 5.6195 8.27858 5.6195H5.99817C5.01362 5.6195 4.21266 6.4205 4.21266 7.40501V8.53726H2.89097V4.3934ZM13.6593 7.40501V8.53726H10.0641V7.40501C10.0641 7.04249 10.359 6.74762 10.7215 6.74762H13.0019C13.3644 6.74762 13.6593 7.04253 13.6593 7.40501ZM8.9359 7.40501V8.53726H5.34067V7.40501C5.34067 7.04249 5.63562 6.74762 5.99806 6.74762H8.27847C8.64099 6.74762 8.9359 7.04253 8.9359 7.40501ZM17.8719 13.5912H1.12812V10.9403C1.12812 10.2373 1.70005 9.66538 2.40309 9.66538H16.5969C17.2999 9.66538 17.8719 10.2373 17.8719 10.9403V13.5912Z" fill="#696969"/>
</svg>
