<svg width="127" height="145" viewBox="0 0 127 145" fill="none" xmlns="http://www.w3.org/2000/svg">
<g filter="url(#filter0_ddd_1987_16183)">
<g filter="url(#filter1_d_1987_16183)">
<circle cx="72.5" cy="62.5" r="22.5" fill="white"/>
<circle cx="72.5" cy="62.5" r="22" stroke="#E6E9EC"/>
</g>
<path d="M76.3335 62.5318L70.9934 57.1917C70.8699 57.0681 70.705 57 70.5292 57C70.3534 57 70.1885 57.0681 70.065 57.1917L69.6717 57.5849C69.4158 57.8411 69.4158 58.2575 69.6717 58.5133L74.156 62.9975L69.6668 67.4867C69.5433 67.6104 69.4751 67.7751 69.4751 67.9508C69.4751 68.1267 69.5433 68.2915 69.6668 68.4152L70.06 68.8083C70.1836 68.9319 70.3484 69 70.5242 69C70.7 69 70.8649 68.9319 70.9884 68.8083L76.3335 63.4634C76.4574 63.3394 76.5254 63.1738 76.525 62.9978C76.5254 62.8211 76.4574 62.6557 76.3335 62.5318Z" fill="#0D263B"/>
</g>
<defs>
<filter id="filter0_ddd_1987_16183" x="4" y="1" width="137" height="142" filterUnits="userSpaceOnUse" color-interpolation-filters="sRGB">
<feFlood flood-opacity="0" result="BackgroundImageFix"/>
<feColorMatrix in="SourceAlpha" type="matrix" values="0 0 0 0 0 0 0 0 0 0 0 0 0 0 0 0 0 0 127 0" result="hardAlpha"/>
<feOffset dy="8"/>
<feGaussianBlur stdDeviation="7.5"/>
<feColorMatrix type="matrix" values="0 0 0 0 0 0 0 0 0 0 0 0 0 0 0 0 0 0 0.06 0"/>
<feBlend mode="normal" in2="BackgroundImageFix" result="effect1_dropShadow_1987_16183"/>
<feColorMatrix in="SourceAlpha" type="matrix" values="0 0 0 0 0 0 0 0 0 0 0 0 0 0 0 0 0 0 127 0" result="hardAlpha"/>
<feOffset dy="7"/>
<feGaussianBlur stdDeviation="23"/>
<feColorMatrix type="matrix" values="0 0 0 0 0 0 0 0 0 0 0 0 0 0 0 0 0 0 0.06 0"/>
<feBlend mode="normal" in2="effect1_dropShadow_1987_16183" result="effect2_dropShadow_1987_16183"/>
<feColorMatrix in="SourceAlpha" type="matrix" values="0 0 0 0 0 0 0 0 0 0 0 0 0 0 0 0 0 0 127 0" result="hardAlpha"/>
<feOffset dy="20"/>
<feGaussianBlur stdDeviation="19"/>
<feColorMatrix type="matrix" values="0 0 0 0 0 0 0 0 0 0 0 0 0 0 0 0 0 0 0.06 0"/>
<feBlend mode="normal" in2="effect2_dropShadow_1987_16183" result="effect3_dropShadow_1987_16183"/>
<feBlend mode="normal" in="SourceGraphic" in2="effect3_dropShadow_1987_16183" result="shape"/>
</filter>
<filter id="filter1_d_1987_16183" x="0" y="0" width="145" height="145" filterUnits="userSpaceOnUse" color-interpolation-filters="sRGB">
<feFlood flood-opacity="0" result="BackgroundImageFix"/>
<feColorMatrix in="SourceAlpha" type="matrix" values="0 0 0 0 0 0 0 0 0 0 0 0 0 0 0 0 0 0 127 0" result="hardAlpha"/>
<feOffset dy="10"/>
<feGaussianBlur stdDeviation="25"/>
<feColorMatrix type="matrix" values="0 0 0 0 0.0509804 0 0 0 0 0.14902 0 0 0 0 0.231373 0 0 0 0.1 0"/>
<feBlend mode="normal" in2="BackgroundImageFix" result="effect1_dropShadow_1987_16183"/>
<feBlend mode="normal" in="SourceGraphic" in2="effect1_dropShadow_1987_16183" result="shape"/>
</filter>
</defs>
</svg>
